<?xml version="1.0" encoding="UTF-8" standalone="no"?>
<svg
   style=""
   width="21.000000"
   height="21.000000"
   version="1.1"
   id="svg4"
   sodipodi:docname="linkedin.svg"
   inkscape:version="1.2.1 (9c6d41e, 2022-07-14)"
   xmlns:inkscape="http://www.inkscape.org/namespaces/inkscape"
   xmlns:sodipodi="http://sodipodi.sourceforge.net/DTD/sodipodi-0.dtd"
   xmlns="http://www.w3.org/2000/svg"
   xmlns:svg="http://www.w3.org/2000/svg">
  <defs
     id="defs8" />
  <sodipodi:namedview
     id="namedview6"
     pagecolor="#ffffff"
     bordercolor="#000000"
     borderopacity="0.25"
     inkscape:showpageshadow="2"
     inkscape:pageopacity="0.0"
     inkscape:pagecheckerboard="0"
     inkscape:deskcolor="#d1d1d1"
     showgrid="false"
     inkscape:zoom="11.238095"
     inkscape:cx="10.5"
     inkscape:cy="10.5"
     inkscape:window-width="1344"
     inkscape:window-height="456"
     inkscape:window-x="0"
     inkscape:window-y="25"
     inkscape:window-maximized="0"
     inkscape:current-layer="svg4" />
  <path
     d="M19.500000 -0.000000 C19.906252 -0.000000 20.257811 0.148436 20.554688 0.445312 C20.851564 0.742189 21.000000 1.093748 21.000000 1.500000 L21.000000 19.500000 C21.000000 19.906252 20.851564 20.257811 20.554688 20.554688 C20.257811 20.851564 19.906252 21.000000 19.500000 21.000000 L1.500000 21.000000 C1.093748 21.000000 0.742189 20.851564 0.445312 20.554688 C0.148436 20.257811 0.000000 19.906252 0.000000 19.500000 L0.000000 1.500000 C0.000000 1.093748 0.148436 0.742189 0.445312 0.445312 C0.742189 0.148436 1.093748 -0.000000 1.500000 -0.000000 Z M6.328125 18.000000 L6.375000 18.000000 L6.375000 7.968750 L3.234375 7.968750 L3.234375 18.000000 Z M3.515625 6.093750 C3.859377 6.437502 4.281248 6.609375 4.781250 6.609375 C5.281252 6.609375 5.710936 6.429689 6.070312 6.070312 C6.429689 5.710936 6.609375 5.289065 6.609375 4.804688 C6.609375 4.320310 6.429689 3.898439 6.070312 3.539062 C5.710936 3.179686 5.281252 3.000000 4.781250 3.000000 C4.281248 3.000000 3.859377 3.179686 3.515625 3.539062 C3.171873 3.898439 3.000000 4.320310 3.000000 4.804688 C3.000000 5.289065 3.171873 5.718748 3.515625 6.093750 Z M18.000000 18.000000 L18.000000 12.515625 C18.000000 11.765621 17.953125 11.125003 17.859375 10.593750 C17.765625 10.062497 17.593751 9.570315 17.343750 9.117188 C17.093749 8.664060 16.710940 8.320314 16.195312 8.085938 C15.679685 7.851561 15.046879 7.734375 14.296875 7.734375 C13.578121 7.734375 12.960940 7.890623 12.445312 8.203125 C11.929685 8.515627 11.562501 8.890623 11.343750 9.328125 L11.296875 9.328125 L11.296875 7.968750 L8.296875 7.968750 L8.296875 18.000000 L11.437500 18.000000 L11.437500 13.031250 C11.437500 12.249996 11.562499 11.625002 11.812500 11.156250 C12.062501 10.687498 12.546871 10.453125 13.265625 10.453125 C13.640627 10.453125 13.953124 10.531249 14.203125 10.687500 C14.453126 10.843751 14.617187 11.078123 14.695312 11.390625 C14.773438 11.703127 14.828125 11.976561 14.859375 12.210938 C14.890625 12.445314 14.906250 12.749998 14.906250 13.125000 L14.906250 18.000000 Z M21.000000 19.500000"
     style="fill:black"
     id="path2" />
</svg>
